<svg xmlns="http://www.w3.org/2000/svg" xmlns:xlink="http://www.w3.org/1999/xlink" viewBox="0 0 869.43 226.3"><defs><style>.cls-1{isolation:isolate;}.cls-2{fill:#fff;}.cls-3{fill:#d78f35;}.cls-4{opacity:0.9;}.cls-4,.cls-6{mix-blend-mode:overlay;}.cls-5{fill:url(#Gradiente_sem_nome_4);}.cls-6{opacity:0;}.cls-7{fill:url(#Gradiente_sem_nome_4-2);}</style><linearGradient id="Gradiente_sem_nome_4" x1="730.02" y1="65.7" x2="869.43" y2="65.7" gradientUnits="userSpaceOnUse"><stop offset="0" stop-color="#fff"/><stop offset="1" stop-color="#070308"/></linearGradient><linearGradient id="Gradiente_sem_nome_4-2" x1="730.03" y1="74.2" x2="869.1" y2="74.2" xlink:href="#Gradiente_sem_nome_4"/></defs><title>Recurso 1</title><g class="cls-1"><g id="Capa_2" data-name="Capa 2"><g id="Capa_1-2" data-name="Capa 1"><path class="cls-2" d="M86.57,122.13a55.31,55.31,0,0,1,20.88,20.1,53.56,53.56,0,0,1,7.66,28.08,54.4,54.4,0,0,1-7.66,28.23,55.45,55.45,0,0,1-20.88,20.33,58.28,58.28,0,0,1-29,7.43,58.22,58.22,0,0,1-29-7.43A55.45,55.45,0,0,1,7.66,198.54,54.3,54.3,0,0,1,0,170.31a53.47,53.47,0,0,1,7.66-28.08,55.52,55.52,0,0,1,20.8-20.1,58.57,58.57,0,0,1,29.09-7.35A58.74,58.74,0,0,1,86.57,122.13Zm-50,11.73A42.77,42.77,0,0,0,21,149.11a41.83,41.83,0,0,0,0,42.47A43.1,43.1,0,0,0,36.52,207a41.23,41.23,0,0,0,21.19,5.71,40.47,40.47,0,0,0,21-5.71,42.91,42.91,0,0,0,15.32-15.4,42.34,42.34,0,0,0,0-42.47,42.57,42.57,0,0,0-15.32-15.25,41,41,0,0,0-21-5.63A41.75,41.75,0,0,0,36.52,133.86Z"/><path class="cls-2" d="M204.1,150.52q8.29,8.53,8.29,23.54V225.2H197.84V178q0-10.49-5.86-16.34t-16.19-5.87q-11.1.17-18.06,7.12t-7.9,18.06V225.2H135.29V142.47h14.54V160q8.29-17.67,31.44-18Q195.81,142,204.1,150.52Z"/><path class="cls-2" d="M300.6,153.34q9.86,11.34,9.85,31.51c0,2.09-.05,3.65-.16,4.69H244.92q1.72,11.11,9.31,17.68t18.69,6.56a35,35,0,0,0,13.68-2.65,33.09,33.09,0,0,0,11-7.51l8,8.29a41.63,41.63,0,0,1-14.7,10.16,49,49,0,0,1-19.08,3.6,43.9,43.9,0,0,1-21.66-5.24,36.76,36.76,0,0,1-14.7-14.78,47.55,47.55,0,0,1,0-43.4,38.17,38.17,0,0,1,14.62-14.86A42.29,42.29,0,0,1,271.51,142Q290.74,142,300.6,153.34Zm-3.29,24.94q-.62-11.26-7.5-17.75T271.66,154q-10.94,0-18.22,6.57t-8.68,17.67Z"/><path class="cls-2" d="M471.29,115.57h29.4L463.63,225.2H434.22l-20.8-74.6-21.11,74.6h-29.4L326,115.57h30.81l21.58,80.07L400,115.57h28l21.9,80.07Z"/><path class="cls-2" d="M564.66,145.05a39.36,39.36,0,0,1,16.27,15.17,43.58,43.58,0,0,1,5.78,22.6q0,13-5.78,22.75a39.36,39.36,0,0,1-16.27,15.17q-10.49,5.4-24.24,5.4t-24.24-5.4A38.79,38.79,0,0,1,500,205.57q-5.72-9.76-5.71-22.75a43.93,43.93,0,0,1,5.71-22.6,38.79,38.79,0,0,1,16.19-15.17q10.47-5.4,24.24-5.4T564.66,145.05ZM527.28,168q-5,5.79-5,15.17,0,9.54,5,15.33a16.53,16.53,0,0,0,13.14,5.78q8.3,0,13.29-5.78t5-15.33q0-9.39-5.08-15.17a16.77,16.77,0,0,0-13.22-5.79A16.54,16.54,0,0,0,527.28,168Z"/><path class="cls-2" d="M640.12,143.4A31.92,31.92,0,0,1,656,139.49V165c-.94-.1-2.35-.16-4.23-.16q-9.84,0-15.95,4.62a17.68,17.68,0,0,0-7,12.59V225.2H600.94V140.59h27.84v14.08A30.56,30.56,0,0,1,640.12,143.4Z"/><path class="cls-2" d="M723.25,225.2l-17.83-31.9-8.6,8.91v23H669v-116h27.84v60.06l27-28.62h31.6l-31,32.69,31.59,51.92Z"/><path id="_Trazado_" data-name="&lt;Trazado&gt;" class="cls-3" d="M799.73,0A69.71,69.71,0,0,0,730,69.7c0,.08,0,.16,0,.24A61.09,61.09,0,0,1,851.42,60.3a52.32,52.32,0,0,1,.83,8.27c0,.38,0,.75,0,1.13s0,.76,0,1.14c0,.78,0,1.56-.1,2.34,0-.23,0-.45,0-.67a43.69,43.69,0,0,1-87.3-2.81,34.86,34.86,0,0,1,69.71,0,43.69,43.69,0,0,0-87.12-4.84c-.16,1.76-.24,3.55-.24,5.35,0,.6,0,1.2,0,1.79,0,.22,0,.44,0,.67a61.17,61.17,0,0,0,52.33,58.11,62.7,62.7,0,0,0,8.72.62A61.14,61.14,0,0,0,869.1,76.49c.15-1.58.25-3.17.3-4.78q0-1,0-2A69.71,69.71,0,0,0,799.73,0Z"/><g id="_Recortar_grupo_" data-name="&lt;Recortar grupo&gt;"><path id="_Trazado_de_recorte_" data-name="&lt;Trazado de recorte&gt;" class="cls-3" d="M808.32,131.4a62.7,62.7,0,0,1-8.72-.62,61.17,61.17,0,0,1-52.33-58.11c0-.61,0-1.22-.07-1.83,0-.38,0-.76,0-1.14s0-.75,0-1.13a53.49,53.49,0,0,1,.71-7.54c-.19,1.26-.34,2.54-.45,3.83a43.69,43.69,0,0,1,87.12,4.84,34.86,34.86,0,1,1-69.71,0,43.69,43.69,0,0,0,87.3,2.81c0-.77.05-1.55.05-2.33,0-1.91-.09-3.8-.26-5.67-.13-1.42-.31-2.82-.54-4.21A61.09,61.09,0,0,0,730,69.94a67.81,67.81,0,0,0,.35,6.87,69.71,69.71,0,0,0,138.72-.32A61.14,61.14,0,0,1,808.32,131.4Z"/></g><g id="_Grupo_" data-name="&lt;Grupo&gt;" class="cls-4"><path class="cls-5" d="M799.73,0A69.71,69.71,0,0,0,730,69.7c0,.08,0,.16,0,.24A61.09,61.09,0,0,1,851.42,60.3a52.32,52.32,0,0,1,.83,8.27c0,.38,0,.75,0,1.13s0,.76,0,1.14c0,.78,0,1.56-.1,2.34,0-.23,0-.45,0-.67a43.69,43.69,0,0,1-87.3-2.81,34.86,34.86,0,0,1,69.71,0,43.69,43.69,0,0,0-87.12-4.84c-.16,1.76-.24,3.55-.24,5.35,0,.6,0,1.2,0,1.79,0,.22,0,.44,0,.67a61.17,61.17,0,0,0,52.33,58.11,62.7,62.7,0,0,0,8.72.62A61.14,61.14,0,0,0,869.1,76.49c.15-1.58.25-3.17.3-4.78q0-1,0-2A69.71,69.71,0,0,0,799.73,0Z"/></g><g id="_Recortar_grupo_2" data-name="&lt;Recortar grupo&gt;" class="cls-6"><path class="cls-7" d="M808.32,131.4a62.7,62.7,0,0,1-8.72-.62,61.17,61.17,0,0,1-52.33-58.11c0-.61,0-1.22-.07-1.83,0-.38,0-.76,0-1.14s0-.75,0-1.13a53.49,53.49,0,0,1,.71-7.54c-.19,1.26-.34,2.54-.45,3.83a43.69,43.69,0,0,1,87.12,4.84,34.86,34.86,0,1,1-69.71,0,43.69,43.69,0,0,0,87.3,2.81c0-.77.05-1.55.05-2.33,0-1.91-.09-3.8-.26-5.67-.13-1.42-.31-2.82-.54-4.21A61.09,61.09,0,0,0,730,69.94a67.81,67.81,0,0,0,.35,6.87,69.71,69.71,0,0,0,138.72-.32A61.14,61.14,0,0,1,808.32,131.4Z"/></g></g></g></g></svg>