<svg xmlns="http://www.w3.org/2000/svg" xmlns:xlink="http://www.w3.org/1999/xlink" viewBox="0 0 301 78.35"><defs><style>.cls-1{fill:#d78f35;}.cls-2{fill:#666464;}.cls-3{opacity:0.9;}.cls-4{fill:url(#Degradado_sin_nombre_2);}</style><linearGradient id="Degradado_sin_nombre_2" x1="252.74" y1="92.6" x2="301" y2="92.6" gradientTransform="matrix(1, 0, 0, -1, 0, 115.34)" gradientUnits="userSpaceOnUse"><stop offset="0" stop-color="#fff"/><stop offset="1" stop-color="#070308"/></linearGradient></defs><title>Recurso 1</title><g id="Capa_2" data-name="Capa 2"><g id="Capa_1-2" data-name="Capa 1"><g id="Capa_2-2" data-name="Capa 2"><g id="Capa_1-2-2" data-name="Capa 1-2"><path class="cls-1" d="M30,42.28a19.17,19.17,0,0,1,7.23,7A18.51,18.51,0,0,1,39.85,59a18.81,18.81,0,0,1-2.65,9.78,19.16,19.16,0,0,1-7.23,7,20.23,20.23,0,0,1-10,2.57,20.28,20.28,0,0,1-10-2.57,19.19,19.19,0,0,1-7.24-7A18.81,18.81,0,0,1,0,59a18.6,18.6,0,0,1,2.65-9.72,19.39,19.39,0,0,1,7.2-7,20.27,20.27,0,0,1,10.08-2.54A20.26,20.26,0,0,1,30,42.28ZM12.66,46.34a14.91,14.91,0,0,0-5.39,5.28,14.51,14.51,0,0,0,0,14.71,14.94,14.94,0,0,0,5.37,5.34,14.26,14.26,0,0,0,7.34,2,14,14,0,0,0,7.27-2,14.93,14.93,0,0,0,5.31-5.34,14.68,14.68,0,0,0,0-14.7,14.84,14.84,0,0,0-5.31-5.28,14.25,14.25,0,0,0-7.27-2,14.55,14.55,0,0,0-7.34,1.94Z"/><path class="cls-1" d="M70.66,52.11c1.92,2,2.87,4.69,2.87,8.15V78h-5V61.63a7,7,0,0,0-7.64-7.69,8.68,8.68,0,0,0-6.25,2.46,9.68,9.68,0,0,0-2.74,6.25V78h-5V49.33h5v6.06c1.92-4.07,5.54-6.15,10.89-6.23A10.52,10.52,0,0,1,70.66,52.11Z"/><path class="cls-1" d="M104.07,53.09Q107.49,57,107.48,64c0,.72,0,1.26,0,1.62H84.8A9.7,9.7,0,0,0,88,71.74,9.47,9.47,0,0,0,94.49,74a12.08,12.08,0,0,0,4.74-.91,11.54,11.54,0,0,0,3.8-2.6l2.77,2.87a14.39,14.39,0,0,1-5.09,3.51,16.77,16.77,0,0,1-6.6,1.25,15.18,15.18,0,0,1-7.5-1.81,12.8,12.8,0,0,1-5.09-5.12,16.47,16.47,0,0,1,0-15A13.23,13.23,0,0,1,86.58,51,14.73,14.73,0,0,1,94,49.16Q100.66,49.16,104.07,53.09Zm-1.14,8.63a8.7,8.7,0,0,0-2.59-6.14,8.85,8.85,0,0,0-6.29-2.26,9.06,9.06,0,0,0-6.3,2.27,9.58,9.58,0,0,0-3,6.12Z"/><path class="cls-2" d="M163.17,40h10.18L160.52,78H150.33l-7.2-25.83L135.82,78H125.65L112.87,40h10.66L131,67.73,138.49,40h9.69l7.58,27.72Z"/><path class="cls-2" d="M195.49,50.22a13.6,13.6,0,0,1,5.64,5.25,16.41,16.41,0,0,1,0,15.7,13.6,13.6,0,0,1-5.64,5.25,19.76,19.76,0,0,1-16.78,0,13.32,13.32,0,0,1-5.6-5.25,15.28,15.28,0,0,1-2-7.87,15.21,15.21,0,0,1,2-7.83,13.44,13.44,0,0,1,5.6-5.25,19.76,19.76,0,0,1,16.78,0Zm-12.94,7.94a7.79,7.79,0,0,0-1.73,5.26,7.83,7.83,0,0,0,1.73,5.3,6.23,6.23,0,0,0,9.15,0,7.78,7.78,0,0,0,1.73-5.3,7.7,7.7,0,0,0-1.75-5.26,5.81,5.81,0,0,0-4.58-2A5.74,5.74,0,0,0,182.55,58.16Z"/><path class="cls-2" d="M221.62,49.65a11.1,11.1,0,0,1,5.5-1.36v8.84a13.26,13.26,0,0,0-1.47-.06,8.89,8.89,0,0,0-5.52,1.6A6.11,6.11,0,0,0,217.71,63V78h-9.65V48.67h9.63v4.88A10.58,10.58,0,0,1,221.62,49.65Z"/><path class="cls-2" d="M250.4,78l-6.17-11-3,3.09v8h-9.63V37.81h9.64V58.6l9.34-9.9h11L250.81,60l10.94,18Z"/><path id="_Trazado_" data-name=" Trazado " class="cls-1" d="M276.88,0a24.13,24.13,0,0,0-24.14,24.13h0v.08a21.15,21.15,0,0,1,42-3.33,18.23,18.23,0,0,1,.28,2.86v.79a7.31,7.31,0,0,1,0,.81V25.1a15.13,15.13,0,0,1-30.23-1,12.07,12.07,0,0,1,24.14,0,15.12,15.12,0,0,0-30.16-1.67c-.06.6-.09,1.22-.09,1.85v.85a21.19,21.19,0,0,0,18.12,20.12,21.79,21.79,0,0,0,3,.21,21.17,21.17,0,0,0,21.07-19c.05-.55.08-1.1.1-1.65v-.7A24.14,24.14,0,0,0,276.88,0Z"/><g id="_Recortar_grupo_" data-name=" Recortar grupo "><path id="_Trazado_de_recorte_" data-name=" Trazado de recorte " class="cls-1" d="M279.85,45.49a21.79,21.79,0,0,1-3-.21,21.18,21.18,0,0,1-18.11-20.12,4.43,4.43,0,0,0,0-.63v-.79a17.6,17.6,0,0,1,.25-2.61c-.07.44-.12.88-.16,1.33a15.12,15.12,0,0,1,30.16,1.67,12.07,12.07,0,1,1-24.13.41v-.41a15.12,15.12,0,0,0,30.22,1c0-.26,0-.53,0-.8,0-.66,0-1.32-.09-2,0-.49-.11-1-.18-1.45a21.15,21.15,0,0,0-42,3.33,23.56,23.56,0,0,0,.12,2.38,24.14,24.14,0,0,0,48-.11A21.17,21.17,0,0,1,279.85,45.49Z"/></g><g id="_Grupo_" data-name=" Grupo " class="cls-3"><path class="cls-4" d="M276.88,0a24.13,24.13,0,0,0-24.14,24.13h0v.08a21.15,21.15,0,0,1,42-3.33,18.23,18.23,0,0,1,.28,2.86v.79a7.31,7.31,0,0,1,0,.81V25.1a15.13,15.13,0,0,1-30.23-1,12.07,12.07,0,0,1,24.14,0,15.12,15.12,0,0,0-30.16-1.67c-.06.6-.09,1.22-.09,1.85v.85a21.19,21.19,0,0,0,18.12,20.12,21.79,21.79,0,0,0,3,.21,21.17,21.17,0,0,0,21.07-19c.05-.55.08-1.1.1-1.65v-.7A24.14,24.14,0,0,0,276.88,0Z"/></g></g></g></g></g></svg>